<!DOCTYPE svg PUBLIC "-//W3C//DTD SVG 1.1//EN" "http://www.w3.org/Graphics/SVG/1.1/DTD/svg11.dtd">
<!-- Uploaded to: SVG Repo, www.svgrepo.com, Transformed by: SVG Repo Mixer Tools -->
<svg width="800px" height="800px" viewBox="0 0 64 64" xmlns="http://www.w3.org/2000/svg" xmlns:xlink="http://www.w3.org/1999/xlink" aria-hidden="true" role="img" class="iconify iconify--emojione-monotone" preserveAspectRatio="xMidYMid meet" fill="#000000">
<g id="SVGRepo_bgCarrier" stroke-width="0"/>
<g id="SVGRepo_tracerCarrier" stroke-linecap="round" stroke-linejoin="round"/>
<g id="SVGRepo_iconCarrier">
<path d="M58.457 41.357a12.084 12.084 0 0 0-11.412-3.2L25.841 16.958A12.09 12.09 0 0 0 22.642 5.54c-3.096-3.096-7.451-4.158-11.413-3.199l8.258 8.26l-1.878 7.007l-7.009 1.879l-8.258-8.26a12.083 12.083 0 0 0 3.201 11.415a12.084 12.084 0 0 0 11.412 3.2l21.204 21.2a12.09 12.09 0 0 0 3.199 11.418c3.096 3.096 7.451 4.158 11.413 3.199l-8.259-8.261l1.878-7.007l7.01-1.879l8.256 8.26a12.074 12.074 0 0 0-3.199-11.415" fill="#F2F2F2"/>
</g>
</svg>