<?xml version="1.0" encoding="iso-8859-1"?>
<!-- Uploaded to: SVG Repo, www.svgrepo.com, Generator: SVG Repo Mixer Tools -->
<svg version="1.1" id="Layer_1" xmlns="http://www.w3.org/2000/svg" xmlns:xlink="http://www.w3.org/1999/xlink" 
	 viewBox="0 0 512.002 512.002" xml:space="preserve">
<rect x="68.162" y="67.351" transform="matrix(-0.9151 0.4033 -0.4033 -0.9151 590.2317 383.5443)" style="fill:#ECEDEF;" width="373.138" height="373.138"/>
<polygon style="fill:#D9DCDF;" points="84.054,125.244 42.926,235.936 133.577,441.596 219.238,473.423 434.955,378.34 
	470.863,281.697 386.673,90.696 264.999,45.487 "/>
<rect x="68.324" y="77.644" transform="matrix(-0.9374 -0.3483 0.3483 -0.9374 401.7976 600.6539)" style="fill:#D8ED8C;" width="373.133" height="373.133"/>
<polygon style="fill:#ECEDEF;" points="240.422,295.997 186.454,325.979 216.437,272.011 306.382,182.065 330.368,206.051 "/>
<polygon style="fill:#D9DCDF;" points="330.368,206.051 319.351,195.036 190.849,323.538 240.422,295.997 "/>
<polygon style="fill:#509FE8;" points="390.331,230.036 282.397,122.102 420.314,32.156 480.277,92.121 "/>
<g>
	<polygon style="fill:#4D8CCF;" points="420.314,32.156 387.617,53.48 458.954,124.816 480.277,92.121 	"/>
	<polygon style="fill:#4D8CCF;" points="282.397,122.102 390.331,230.036 412.508,196.032 316.401,99.925 	"/>
</g>
<g>
	<path style="fill:#509FE8;" d="M474.28,98.116l-59.964-59.964c-6.623-6.623-6.623-17.362,0-23.985l0,0
		c6.623-6.623,17.362-6.623,23.985,0l59.964,59.964c6.623,6.623,6.623,17.362,0,23.985l0,0
		C491.642,104.74,480.905,104.74,474.28,98.116z"/>
	<path style="fill:#509FE8;" d="M390.331,266.015L246.419,122.102l11.993-11.993c6.623-6.623,17.362-6.623,23.985,0l119.927,119.927
		c6.623,6.623,6.623,17.362,0,23.985L390.331,266.015z"/>
</g>
<path d="M493.918,314.291c-1.77-4.017-6.464-5.838-10.481-4.068c-4.019,1.771-5.84,6.464-4.068,10.483l10.84,24.591l-69.288,30.54
	l37.849-101.866l5.648,12.812c1.839,4.172,6.986,5.953,11.016,3.809c3.626-1.929,5.19-6.467,3.534-10.223l-12.25-27.789
	l35.488-95.513c1.53-4.116-0.567-8.692-4.683-10.222l-34.971-12.994l15.732-24.121c2.594,0.883,5.292,1.329,7.988,1.329
	c6.394,0,12.762-2.467,17.616-7.322c9.713-9.713,9.713-25.516,0-35.229L443.924,8.545c-9.713-9.712-25.515-9.711-35.229,0
	c-6.902,6.902-8.96,16.856-5.985,25.599l-25.068,16.349L357.468,4.726c-1.746-3.958-6.514-5.814-10.481-4.068L235.882,49.632
	l-88.124-32.743c-4.063-1.508-8.714,0.629-10.222,4.683l-31.728,85.394L5.557,151.155c-3.958,1.745-5.816,6.516-4.068,10.483
	l45.583,103.413L7.58,371.336c-1.509,4.062,0.629,8.715,4.683,10.222l38.749,14.397c4.231,1.573,9.027-0.807,10.364-5.106
	c1.237-3.975-0.928-8.351-4.825-9.799l-31.297-11.628L149.673,34.563l160.791,59.744l-19.748,12.879l-2.698-2.698
	c-9.713-9.712-25.516-9.711-35.229,0l-11.993,11.992c-3.061,3.062-3.061,8.182,0,11.244l54.342,54.342l-84.324,84.324
	c-0.523,0.523-0.97,1.115-1.328,1.761l-29.982,53.968c-1.621,2.917-1.213,6.635,1,9.132c2.443,2.757,6.587,3.47,9.81,1.679
	l53.968-29.982c0.646-0.359,1.238-0.807,1.761-1.328l36.687-36.686l86.59,32.173c4.231,1.573,9.027-0.807,10.364-5.106
	c1.237-3.975-0.927-8.351-4.825-9.799l-79.76-29.635l35.27-35.27l54.342,54.342c3.06,3.06,8.183,3.061,11.243-0.001l11.993-11.992
	c9.713-9.713,9.713-25.516,0-35.229l-2.698-2.697l48.399-74.212l30.885,11.476L360.113,493.84L90.474,393.655
	c-4.117-1.532-8.692,0.567-10.222,4.683s0.567,8.692,4.683,10.222l30.364,11.283l36.685,83.227
	c1.745,3.958,6.515,5.815,10.481,4.068l85.888-37.858l113.674,42.235c4.063,1.51,8.713-0.623,10.222-4.683l40.951-110.214
	l90.696-39.977c3.958-1.745,5.816-6.516,4.068-10.483L493.918,314.291z M98.088,127.747L55.019,243.661l-35.775-81.161
	L98.088,127.747z M419.939,19.789c3.512-3.512,9.23-3.514,12.742,0l59.964,59.963c3.513,3.512,3.513,9.229,0,12.743
	c-3.273,3.274-8.446,3.548-12.033,0.637c-0.253-0.206-61.102-61.055-61.309-61.309C416.391,28.236,416.664,23.063,419.939,19.789z
	 M364.145,59.296l-37.111,24.203l-69.76-25.921l88.852-39.166L364.145,59.296z M275.094,250.08l-39.507,39.508l-28.67,15.928
	l15.928-28.671l83.537-83.536l12.742,12.742L275.094,250.08z M396.703,248.4l-6.372,6.372l-132.669-132.67l6.371-6.371
	c3.513-3.513,9.23-3.513,12.742,0l68.192,68.192c3.233,3.232,8.693,3.016,11.665-0.456c2.665-3.112,2.472-7.893-0.423-10.788
	l-54.005-54.005l109.788-71.601l53.366,53.366l-71.602,109.789l-12.106-12.106c-3.105-3.104-8.139-3.104-11.243,0
	c-3.105,3.106-3.105,8.139,0,11.244l26.294,26.294C400.216,239.171,400.216,244.887,396.703,248.4z M136.08,427.563l90.883,33.768
	l-63.635,28.049L136.08,427.563z"/>
<path d="M271.493,188.384c4.231,1.573,9.027-0.807,10.364-5.106c1.237-3.975-0.928-8.351-4.825-9.799l-101.123-37.571
	c-4.116-1.531-8.692,0.568-10.222,4.683c-1.53,4.116,0.567,8.692,4.683,10.222L271.493,188.384z"/>
<path d="M142.06,204.184c-1.53,4.116,0.567,8.692,4.683,10.222l55.645,20.675c4.231,1.573,9.027-0.807,10.364-5.106
	c1.237-3.975-0.928-8.351-4.825-9.799l-55.645-20.675C148.164,197.971,143.589,200.069,142.06,204.184z"/>
<path d="M118.431,267.778c-1.53,4.116,0.567,8.692,4.683,10.222l55.104,20.473c4.231,1.573,9.027-0.807,10.364-5.106
	c1.237-3.975-0.928-8.351-4.825-9.799l-55.104-20.473C124.536,261.564,119.96,263.663,118.431,267.778z"/>
<path d="M94.802,331.371c-1.53,4.116,0.567,8.692,4.683,10.222l222.578,82.701c4.231,1.573,9.027-0.807,10.364-5.106
	c1.237-3.975-0.928-8.351-4.825-9.799l-222.578-82.701C100.907,325.157,96.332,327.255,94.802,331.371z"/>
<path d="M290.047,340.024c4.231,1.573,9.027-0.807,10.364-5.106c1.237-3.975-0.927-8.351-4.825-9.799l-23.848-8.861
	c-4.117-1.532-8.692,0.567-10.222,4.683s0.567,8.692,4.683,10.222L290.047,340.024z"/>
<path d="M345.692,360.699c4.231,1.573,9.027-0.807,10.364-5.106c1.237-3.975-0.927-8.351-4.825-9.799l-31.797-11.815
	c-4.118-1.531-8.692,0.567-10.222,4.683c-1.53,4.116,0.567,8.692,4.683,10.222L345.692,360.699z"/>
</svg>