<?xml version="1.0" encoding="iso-8859-1"?>
<!-- Uploaded to: SVG Repo, www.svgrepo.com, Generator: SVG Repo Mixer Tools -->
<svg height="800px" width="800px" version="1.1" id="Layer_1" xmlns="http://www.w3.org/2000/svg" xmlns:xlink="http://www.w3.org/1999/xlink" 
	 viewBox="0 0 512 512" xml:space="preserve">
<g>
	<path style="fill:#77442B;" d="M278.069,414.897c0-53.628,43.476-97.103,97.103-97.103c6.038,0,11.926,0.627,17.655,1.677V52.966
		H286.897v52.966H145.655V52.966H39.724v441.379h279.72C294.453,476.778,278.069,447.77,278.069,414.897"/>
	<path style="fill:#EBEBD6;" d="M278.069,414.897c0-47.59,34.26-87.111,79.448-95.426V88.276h-70.621v17.655H145.655V88.276H75.034
		v370.759H288.75C281.971,445.784,278.069,430.804,278.069,414.897"/>
	<path style="fill:#FFA700;" d="M472.276,414.897c0-53.628-43.476-97.103-97.103-97.103s-97.103,43.476-97.103,97.103
		S321.545,512,375.172,512S472.276,468.524,472.276,414.897"/>
	<path style="fill:#BDC3C7;" d="M251.586,35.31c0-19.5-15.81-35.31-35.31-35.31s-35.31,15.81-35.31,35.31h-35.31v70.621h141.241
		V35.31H251.586z"/>
	<g>
		<path style="fill:#CCCBBA;" d="M128,167.724h123.586c4.882,0,8.828-3.946,8.828-8.828c0-4.882-3.946-8.828-8.828-8.828H128
			c-4.882,0-8.828,3.946-8.828,8.828C119.172,163.778,123.118,167.724,128,167.724"/>
		<path style="fill:#CCCBBA;" d="M286.897,167.724h26.483c4.882,0,8.828-3.946,8.828-8.828c0-4.882-3.946-8.828-8.828-8.828h-26.483
			c-4.882,0-8.828,3.946-8.828,8.828C278.069,163.778,282.015,167.724,286.897,167.724"/>
		<path style="fill:#CCCBBA;" d="M313.379,185.379h-88.276c-4.882,0-8.828,3.946-8.828,8.828c0,4.882,3.946,8.828,8.828,8.828
			h88.276c4.882,0,8.828-3.946,8.828-8.828C322.207,189.325,318.261,185.379,313.379,185.379"/>
		<path style="fill:#CCCBBA;" d="M313.379,220.69h-35.31c-4.882,0-8.828,3.946-8.828,8.828c0,4.882,3.946,8.828,8.828,8.828h35.31
			c4.882,0,8.828-3.946,8.828-8.828C322.207,224.636,318.261,220.69,313.379,220.69"/>
		<path style="fill:#CCCBBA;" d="M128,203.034h61.793c4.882,0,8.828-3.946,8.828-8.828c0-4.882-3.946-8.828-8.828-8.828H128
			c-4.882,0-8.828,3.946-8.828,8.828C119.172,199.089,123.118,203.034,128,203.034"/>
		<path style="fill:#CCCBBA;" d="M128,238.345h26.483c4.882,0,8.828-3.946,8.828-8.828c0-4.882-3.946-8.828-8.828-8.828H128
			c-4.882,0-8.828,3.946-8.828,8.828C119.172,234.399,123.118,238.345,128,238.345"/>
		<path style="fill:#CCCBBA;" d="M128,273.655h70.621c4.882,0,8.828-3.946,8.828-8.828c0-4.882-3.946-8.828-8.828-8.828H128
			c-4.882,0-8.828,3.946-8.828,8.828C119.172,269.709,123.118,273.655,128,273.655"/>
		<path style="fill:#CCCBBA;" d="M180.966,229.517c0,4.882,3.946,8.828,8.828,8.828h52.966c4.882,0,8.828-3.946,8.828-8.828
			c0-4.882-3.946-8.828-8.828-8.828h-52.966C184.911,220.69,180.966,224.636,180.966,229.517"/>
		<path style="fill:#CCCBBA;" d="M313.379,256h-8.828c-4.882,0-8.828,3.946-8.828,8.828c0,4.882,3.946,8.828,8.828,8.828h8.828
			c4.882,0,8.828-3.946,8.828-8.828C322.207,259.946,318.261,256,313.379,256"/>
		<path style="fill:#CCCBBA;" d="M269.241,273.655c4.882,0,8.828-3.946,8.828-8.828c0-4.882-3.946-8.828-8.828-8.828h-35.31
			c-4.882,0-8.828,3.946-8.828,8.828c0,4.882,3.946,8.828,8.828,8.828H269.241z"/>
		<path style="fill:#CCCBBA;" d="M136.828,291.31H128c-4.882,0-8.828,3.946-8.828,8.828s3.946,8.828,8.828,8.828h8.828
			c4.882,0,8.828-3.946,8.828-8.828S141.709,291.31,136.828,291.31"/>
		<path style="fill:#CCCBBA;" d="M313.379,291.31h-70.621c-4.882,0-8.828,3.946-8.828,8.828s3.946,8.828,8.828,8.828h70.621
			c4.882,0,8.828-3.946,8.828-8.828S318.261,291.31,313.379,291.31"/>
		<path style="fill:#CCCBBA;" d="M207.448,291.31h-35.31c-4.882,0-8.828,3.946-8.828,8.828s3.946,8.828,8.828,8.828h35.31
			c4.882,0,8.828-3.946,8.828-8.828S212.33,291.31,207.448,291.31"/>
	</g>
	<path style="fill:#FFFFFF;" d="M424.207,372.242c-4.078-2.71-9.551-1.615-12.244,2.445l-46.045,69.076l-18.997-25.335
		c-2.922-3.902-8.457-4.696-12.35-1.766c-3.911,2.922-4.705,8.457-1.766,12.359l26.483,35.31c0.185,0.247,0.477,0.344,0.68,0.565
		c0.477,0.512,0.874,1.077,1.483,1.483c0.221,0.15,0.468,0.203,0.706,0.335c0.256,0.132,0.494,0.247,0.768,0.353
		c1.103,0.477,2.251,0.794,3.407,0.794h0.018l0,0c0.018,0,0.035-0.009,0.053-0.009c0.821-0.009,1.624-0.159,2.41-0.388
		c0.238-0.062,0.459-0.168,0.697-0.256c0.609-0.238,1.183-0.538,1.739-0.909c0.124-0.088,0.265-0.115,0.388-0.203
		c0.062-0.053,0.088-0.124,0.15-0.177c0.715-0.556,1.377-1.192,1.898-1.986l52.966-79.448
		C429.362,380.425,428.268,374.952,424.207,372.242"/>
</g>
</svg>